<svg width="200" height="178" viewBox="0 0 200 178" fill="none" xmlns="http://www.w3.org/2000/svg">
<g clip-path="url(#clip0_48_9089)">
<path d="M150.213 80.4962C151.805 80.4962 153.408 80.1057 154.893 79.2797C158.069 77.5309 159.871 74.2443 159.886 70.8615C159.898 69.2544 159.507 67.6281 158.681 66.1358L123.523 5.04556C121.77 1.8468 118.445 0.0556641 115.032 0.0556641C113.448 0.0556641 111.852 0.434668 110.367 1.24975C107.176 3.02549 105.381 6.29673 105.354 9.69494C105.354 11.2982 105.745 12.9283 106.571 14.4129L141.737 75.507C143.502 78.6936 146.812 80.4962 150.213 80.4962Z" fill="#6B5F5F" fill-opacity="0.4"/>
<path d="M45.0419 79.275C46.5381 80.1054 48.1336 80.4915 49.7144 80.4915C53.1312 80.4915 56.4415 78.6895 58.2051 75.5016L93.3633 14.4076C94.19 12.9191 94.5837 11.2928 94.5837 9.68957C94.5529 6.29136 92.7586 3.02012 89.5707 1.24438C88.0861 0.429297 86.4791 0.050293 84.8912 0.050293C81.4706 0.050293 78.1641 1.84078 76.4114 5.04019L41.2455 66.1265C40.4188 67.6227 40.0321 69.2452 40.0437 70.8522C40.0713 74.2434 41.8694 77.5268 45.0419 79.275Z" fill="#6B5F5F" fill-opacity="0.4"/>
<path d="M190.281 66.8313H168.294C170 74.6641 166.58 83.0252 159.198 87.1116C156.443 88.6192 153.344 89.4228 150.214 89.4228C143.457 89.4228 137.216 85.7494 133.932 79.8104C134.001 79.956 126.455 66.8307 126.455 66.8307H73.489L65.9967 79.856C62.6678 85.7796 56.4613 89.4183 49.715 89.4183C46.5963 89.4183 43.4816 88.6147 40.742 87.1071C36.3914 84.6964 33.2305 80.732 31.853 75.9639C30.9847 72.9332 30.9847 69.8107 31.6427 66.8262H9.71943C4.36592 66.8275 0 71.1709 0 76.5469C0 81.8966 4.36592 86.2548 9.71943 86.2548H12.8419C12.9028 86.7024 12.9374 87.1385 13.0676 87.5938L32.2692 159.781C33.8878 165.865 40.3662 170.843 46.6566 170.843H50.0048C50.0048 170.843 50.0048 172.431 50.0048 174.394C50.0048 176.361 52.0518 177.949 54.5734 177.949H80.2758C82.8012 177.949 84.8443 176.361 84.8443 174.394V170.843H117.974C117.974 170.843 117.974 172.431 117.974 174.394C117.974 176.361 120.021 177.949 122.543 177.949H148.245C150.771 177.949 152.814 176.361 152.814 174.394V170.843H153.345C159.636 170.843 166.118 165.865 167.744 159.781L186.946 87.5938C187.061 87.1423 187.111 86.7024 187.16 86.2548H190.271C195.655 86.2548 199.998 81.8966 199.998 76.5469C200.008 71.1748 195.665 66.8313 190.281 66.8313ZM59.2997 151.041C59.2997 154.08 56.8275 156.551 53.7897 156.551C50.7359 156.551 48.2682 154.079 48.2682 151.041V109.141C48.2682 106.091 50.7365 103.631 53.7897 103.631C56.8282 103.631 59.2997 106.092 59.2997 109.141V151.041ZM90.1183 151.041C90.1183 154.08 87.6461 156.551 84.5968 156.551C81.5545 156.551 79.0868 154.079 79.0868 151.041V109.141C79.0868 106.091 81.559 103.631 84.5968 103.631C87.6506 103.631 90.1183 106.092 90.1183 109.141V151.041ZM120.937 151.041C120.937 154.08 118.465 156.551 115.419 156.551C112.365 156.551 109.898 154.079 109.898 151.041V109.141C109.898 106.091 112.37 103.631 115.419 103.631C118.465 103.631 120.937 106.092 120.937 109.141V151.041ZM151.756 151.041C151.756 154.08 149.28 156.551 146.234 156.551C143.192 156.551 140.716 154.079 140.716 151.041V109.141C140.716 106.091 143.192 103.631 146.234 103.631C149.28 103.631 151.756 106.092 151.756 109.141V151.041Z" fill="#6B5F5F" fill-opacity="0.4"/>
</g>
<defs>
<clipPath id="clip0_48_9089">
<rect width="200" height="178" fill="white"/>
</clipPath>
</defs>
</svg>
